<mxfile host="app.diagrams.net" modified="2023-06-05T18:14:41.191Z" agent="Mozilla/5.0 (Windows NT 10.0; Win64; x64) AppleWebKit/537.36 (KHTML, like Gecko) Chrome/114.0.0.0 Safari/537.36" etag="VbVkQFg_1ruyP5j1OM6V" version="21.3.7" type="github">
  <diagram name="第 1 页" id="muWe0fv5W2X6z_nuNxD0">
    <mxGraphModel dx="965" dy="676" grid="1" gridSize="10" guides="1" tooltips="1" connect="1" arrows="1" fold="1" page="1" pageScale="1" pageWidth="827" pageHeight="1169" math="0" shadow="0">
      <root>
        <mxCell id="0" />
        <mxCell id="1" parent="0" />
        <mxCell id="j2DyYQ06WlmJjTM4UZrJ-32" value="q3" style="text;html=1;strokeColor=none;fillColor=none;align=center;verticalAlign=middle;whiteSpace=wrap;rounded=0;fontColor=#FFCCFF;" vertex="1" parent="1">
          <mxGeometry x="444" y="370" width="60" height="30" as="geometry" />
        </mxCell>
        <mxCell id="j2DyYQ06WlmJjTM4UZrJ-31" value="q3" style="text;html=1;strokeColor=none;fillColor=none;align=center;verticalAlign=middle;whiteSpace=wrap;rounded=0;fontColor=#FFCCFF;" vertex="1" parent="1">
          <mxGeometry x="300" y="370" width="60" height="30" as="geometry" />
        </mxCell>
        <mxCell id="j2DyYQ06WlmJjTM4UZrJ-6" value="q2" style="text;html=1;strokeColor=none;fillColor=none;align=center;verticalAlign=middle;whiteSpace=wrap;rounded=0;fontColor=#FFCCFF;" vertex="1" parent="1">
          <mxGeometry x="540" y="310" width="60" height="30" as="geometry" />
        </mxCell>
        <mxCell id="j2DyYQ06WlmJjTM4UZrJ-49" style="edgeStyle=orthogonalEdgeStyle;orthogonalLoop=1;jettySize=auto;html=1;exitX=1;exitY=0.5;exitDx=0;exitDy=0;entryX=0;entryY=0.5;entryDx=0;entryDy=0;curved=1;strokeColor=#FFCCFF;" edge="1" parent="1" source="j2DyYQ06WlmJjTM4UZrJ-22" target="j2DyYQ06WlmJjTM4UZrJ-23">
          <mxGeometry relative="1" as="geometry" />
        </mxCell>
        <mxCell id="j2DyYQ06WlmJjTM4UZrJ-50" style="edgeStyle=orthogonalEdgeStyle;orthogonalLoop=1;jettySize=auto;html=1;exitX=1;exitY=0.5;exitDx=0;exitDy=0;entryX=0.5;entryY=0;entryDx=0;entryDy=0;curved=1;strokeColor=#FFCCFF;" edge="1" parent="1" source="j2DyYQ06WlmJjTM4UZrJ-22" target="j2DyYQ06WlmJjTM4UZrJ-30">
          <mxGeometry relative="1" as="geometry" />
        </mxCell>
        <mxCell id="j2DyYQ06WlmJjTM4UZrJ-22" value="H q2" style="ellipse;whiteSpace=wrap;html=1;strokeColor=#FFCCFF;fillColor=#FFCCFF;" vertex="1" parent="1">
          <mxGeometry x="344" y="310" width="100" height="50" as="geometry" />
        </mxCell>
        <mxCell id="j2DyYQ06WlmJjTM4UZrJ-23" value="CNOT q1,q2" style="ellipse;whiteSpace=wrap;html=1;strokeColor=#FFCCFF;fillColor=#FFCCFF;" vertex="1" parent="1">
          <mxGeometry x="630" y="310" width="100" height="50" as="geometry" />
        </mxCell>
        <mxCell id="j2DyYQ06WlmJjTM4UZrJ-33" style="edgeStyle=orthogonalEdgeStyle;orthogonalLoop=1;jettySize=auto;html=1;exitX=1;exitY=0.5;exitDx=0;exitDy=0;entryX=0;entryY=0.5;entryDx=0;entryDy=0;curved=1;strokeColor=#FFCCFF;" edge="1" parent="1" source="j2DyYQ06WlmJjTM4UZrJ-25" target="j2DyYQ06WlmJjTM4UZrJ-23">
          <mxGeometry relative="1" as="geometry" />
        </mxCell>
        <mxCell id="j2DyYQ06WlmJjTM4UZrJ-25" value="Y q1" style="ellipse;whiteSpace=wrap;html=1;strokeColor=#FFE599;fillColor=#FFF2CC;" vertex="1" parent="1">
          <mxGeometry x="480" y="260" width="100" height="50" as="geometry" />
        </mxCell>
        <mxCell id="j2DyYQ06WlmJjTM4UZrJ-26" style="edgeStyle=orthogonalEdgeStyle;rounded=1;orthogonalLoop=1;jettySize=auto;html=1;exitX=1;exitY=0.5;exitDx=0;exitDy=0;entryX=0;entryY=0.5;entryDx=0;entryDy=0;strokeColor=#FFCCFF;" edge="1" parent="1" source="j2DyYQ06WlmJjTM4UZrJ-27" target="j2DyYQ06WlmJjTM4UZrJ-30">
          <mxGeometry relative="1" as="geometry" />
        </mxCell>
        <mxCell id="j2DyYQ06WlmJjTM4UZrJ-27" value="H q3" style="ellipse;whiteSpace=wrap;html=1;strokeColor=#FFE599;fillColor=#FFF2CC;" vertex="1" parent="1">
          <mxGeometry x="360" y="370" width="100" height="50" as="geometry" />
        </mxCell>
        <mxCell id="j2DyYQ06WlmJjTM4UZrJ-28" style="edgeStyle=orthogonalEdgeStyle;rounded=1;orthogonalLoop=1;jettySize=auto;html=1;exitX=1;exitY=0.5;exitDx=0;exitDy=0;entryX=0;entryY=0.5;entryDx=0;entryDy=0;strokeColor=#FFCCFF;" edge="1" parent="1" source="j2DyYQ06WlmJjTM4UZrJ-29" target="j2DyYQ06WlmJjTM4UZrJ-27">
          <mxGeometry relative="1" as="geometry" />
        </mxCell>
        <mxCell id="j2DyYQ06WlmJjTM4UZrJ-29" value="X q3" style="ellipse;whiteSpace=wrap;html=1;strokeColor=#FFE599;fillColor=#FFF2CC;" vertex="1" parent="1">
          <mxGeometry x="210" y="370" width="100" height="50" as="geometry" />
        </mxCell>
        <mxCell id="j2DyYQ06WlmJjTM4UZrJ-30" value="CNOT q3,q2" style="ellipse;whiteSpace=wrap;html=1;strokeColor=#FFE599;fillColor=#FFF2CC;" vertex="1" parent="1">
          <mxGeometry x="504" y="370" width="100" height="50" as="geometry" />
        </mxCell>
        <mxCell id="j2DyYQ06WlmJjTM4UZrJ-48" value="q1" style="text;html=1;strokeColor=none;fillColor=none;align=center;verticalAlign=middle;whiteSpace=wrap;rounded=0;fontColor=#FFCCFF;" vertex="1" parent="1">
          <mxGeometry x="590" y="280" width="60" height="30" as="geometry" />
        </mxCell>
        <mxCell id="j2DyYQ06WlmJjTM4UZrJ-51" value="q2" style="text;html=1;strokeColor=none;fillColor=none;align=center;verticalAlign=middle;whiteSpace=wrap;rounded=0;fontColor=#FFCCFF;" vertex="1" parent="1">
          <mxGeometry x="490" y="340" width="60" height="30" as="geometry" />
        </mxCell>
      </root>
    </mxGraphModel>
  </diagram>
</mxfile>
